<svg width="40" height="48" viewBox="0 0 40 48" fill="none" xmlns="http://www.w3.org/2000/svg">
<rect x="2.4" y="2.4" width="35.2" height="43.2" rx="17.6" fill="white"/>
<rect x="2.4" y="2.4" width="35.2" height="43.2" rx="17.6" stroke="#0A7A6A" stroke-width="3.2"/>
<path d="M14.7639 21.337C14.8373 19.8703 15.3506 18.741 16.3039 17.949C17.2719 17.1423 18.5406 16.739 20.1099 16.739C21.1806 16.739 22.0973 16.9297 22.8599 17.311C23.6226 17.6777 24.1946 18.1837 24.5759 18.829C24.9719 19.4597 25.1699 20.1783 25.1699 20.985C25.1699 21.909 24.9279 22.6937 24.4439 23.339C23.9746 23.9697 23.4099 24.395 22.7499 24.615V24.703C23.6006 24.967 24.2606 25.4363 24.7299 26.111C25.2139 26.7857 25.4559 27.651 25.4559 28.707C25.4559 29.587 25.2506 30.3717 24.8399 31.061C24.4439 31.7503 23.8499 32.293 23.0579 32.689C22.2806 33.0703 21.3419 33.261 20.2419 33.261C18.5846 33.261 17.2353 32.843 16.1939 32.007C15.1526 31.171 14.6026 29.939 14.5439 28.311H17.5359C17.5653 29.0297 17.8073 29.609 18.2619 30.049C18.7313 30.4743 19.3693 30.687 20.1759 30.687C20.9239 30.687 21.4959 30.4817 21.8919 30.071C22.3026 29.6457 22.5079 29.103 22.5079 28.443C22.5079 27.563 22.2293 26.9323 21.6719 26.551C21.1146 26.1697 20.2493 25.979 19.0759 25.979H18.4379V23.449H19.0759C21.1586 23.449 22.1999 22.7523 22.1999 21.359C22.1999 20.7283 22.0093 20.237 21.6279 19.885C21.2613 19.533 20.7259 19.357 20.0219 19.357C19.3326 19.357 18.7973 19.5477 18.4159 19.929C18.0493 20.2957 17.8366 20.765 17.7779 21.337H14.7639Z" fill="#0A7A6A"/>
</svg>
