<svg width="94" height="94" viewBox="0 0 94 94" fill="none" xmlns="http://www.w3.org/2000/svg">
<path d="M72 50.125V34.5H82.938C83.6099 34.5 84.2075 34.0703 84.4185 33.4336C84.6333 32.7969 84.4107 32.0938 83.8755 31.6914L71.3755 22.3164C71.356 22.3047 71.3365 22.2969 71.3169 22.2852C71.2974 22.2695 71.2818 22.25 71.2583 22.2383C71.2115 22.207 71.1568 22.1953 71.106 22.1719C71.0513 22.1445 70.9966 22.1172 70.938 22.0977C70.8638 22.0742 70.7896 22.0586 70.7115 22.0469C70.6529 22.0352 70.5943 22.0195 70.5357 22.0156C70.4537 22.0117 70.3716 22.0195 70.2896 22.0273C70.2349 22.0312 70.1802 22.0312 70.1255 22.0391C69.9927 22.0664 69.8599 22.1094 69.7349 22.1719L69.442 22.3203C66.0826 9.34331 54.337 0.125305 40.751 0.125305C24.903 0.125305 11.958 12.6133 11.142 28.2623C10.6302 28.2389 10.1303 28.4537 9.81385 28.8756L0.438852 41.3756C0.138072 41.7779 0.0482318 42.3014 0.196662 42.7779C0.345102 43.2584 0.716192 43.6373 1.19275 43.7935L9.50135 46.563V64.188C9.50135 64.8599 9.93104 65.4575 10.5678 65.6685L38.6928 75.0435C38.7045 75.0474 38.7123 75.0435 38.724 75.0474C38.8763 75.0982 39.0326 75.1255 39.1888 75.1255C39.4037 75.1255 39.6107 75.0669 39.806 74.981C39.8334 74.9693 39.8607 74.9732 39.8881 74.9615L50.2671 69.774C50.1889 70.5122 50.1264 71.2545 50.1264 72.0006C50.1264 84.0626 59.9389 93.8756 72.0014 93.8756C84.0639 93.8756 93.8764 84.0631 93.8764 72.0006C93.8764 59.9381 84.0639 50.1256 72.0014 50.1256L72 50.125ZM72 31.375V26.6875L78.25 31.375H72ZM40.75 3.25C53.129 3.25 63.816 11.7969 66.598 23.734L39.067 37.5L14.192 29.207C14.5162 14.84 26.305 3.25 40.751 3.25H40.75ZM11.637 31.652L12.1175 31.8122C12.1292 31.8161 12.137 31.8239 12.1448 31.8278L36.6328 39.988L29.2344 49.8513L11.5584 43.9568L4.24201 41.5193L11.637 31.652ZM12.6253 47.605L29.3163 53.1675C29.6952 53.2964 30.0858 53.2534 30.4296 53.105C30.4765 53.0855 30.5155 53.0659 30.5585 53.0386C30.746 52.9331 30.9218 52.8042 31.0585 52.6245L37.6249 43.8745V71.3945L12.6249 63.0625L12.6253 47.605ZM40.7503 40.1519L68.8753 26.0899V56.9729L51.6133 65.6018L40.7503 71.0354V40.1519ZM72.0003 90.7499C61.6603 90.7499 53.2503 82.3397 53.2503 71.9999C53.2503 70.6757 53.3909 69.3554 53.6683 68.0702L71.1373 59.3358C71.6646 59.0702 72.0005 58.5311 72.0005 57.9374V53.2499C82.3405 53.2499 90.7505 61.6601 90.7505 71.9999C90.7505 82.3397 82.3403 90.7499 72.0005 90.7499H72.0003Z" fill="#0A7A6A"/>
<path d="M71 67C71 64.7934 69.2066 63 67 63C64.7934 63 63 64.7934 63 67C63 69.2066 64.7934 71 67 71C69.2066 71 71 69.2066 71 67ZM65.6667 67C65.6667 66.2633 66.2633 65.6667 67 65.6667C67.7367 65.6667 68.3333 66.2633 68.3333 67C68.3333 67.7367 67.7367 68.3333 67 68.3333C66.2633 68.3333 65.6667 67.7367 65.6667 67Z" fill="#A6DBD6"/>
<path d="M78 74C75.7934 74 74 76.0175 74 78.5C74 80.9825 75.7934 83 78 83C80.2066 83 82 80.9825 82 78.5C82 76.0175 80.2066 74 78 74ZM78 80C77.2633 80 76.6667 79.3287 76.6667 78.5C76.6667 77.6713 77.2633 77 78 77C78.7367 77 79.3333 77.6713 79.3333 78.5C79.3333 79.3287 78.7367 80 78 80Z" fill="#A6DBD6"/>
<path d="M80.5855 65.39C80.033 64.87 79.137 64.87 78.581 65.39L64.4144 78.7234C63.8619 79.2434 63.8619 80.0867 64.4144 80.61C64.6906 80.87 65.0554 81 65.4167 81C65.778 81 66.1427 80.87 66.419 80.61L80.5856 67.2766C81.1381 66.7566 81.1381 65.9099 80.5856 65.39H80.5855Z" fill="#A6DBD6"/>
<path d="M40.0738 31.223C40.2886 31.3246 40.5191 31.3754 40.7496 31.3754C41.0972 31.3754 41.4449 31.2582 41.7261 31.0316L55.2576 21.6953C55.9294 21.1562 56.0388 20.1719 55.4998 19.5C54.9607 18.8281 53.9803 18.7148 53.3045 19.2578L42.312 26.5631V11.9381C42.312 11.0748 41.6128 10.3756 40.7495 10.3756C39.8862 10.3756 39.187 11.0748 39.187 11.9381V29.8131C39.187 30.4147 39.5308 30.9612 40.0738 31.223Z" fill="#0A7A6A"/>
</svg>
