<svg width="90" height="87" viewBox="0 0 90 87" fill="none" xmlns="http://www.w3.org/2000/svg">
<path d="M89.7891 21.551C89.7539 21.4025 89.7031 21.258 89.6406 21.1213L89.582 21.0197H89.5781C89.5117 20.8791 89.418 20.7502 89.3086 20.6408L69.7816 1.10181C69.6644 0.99634 69.5355 0.90259 69.3988 0.82056L69.2972 0.769779H69.3011C69.0589 0.644779 68.7933 0.582279 68.5199 0.578369H31.9419C28.5552 0.586182 25.8091 3.33227 25.8091 6.71897V80.449C25.8169 83.8318 28.5591 86.574 31.9419 86.5779H83.6919C87.0747 86.574 89.8169 83.8318 89.8208 80.449V21.879C89.8208 21.7696 89.8091 21.6602 89.7895 21.5508L89.7891 21.551ZM83.7891 20.1096H73.1801C71.5863 20.1096 70.2973 18.8205 70.2895 17.2307V6.62867L83.7891 20.1096ZM83.6914 83.0006H31.9414C30.5078 83.0006 29.3437 81.8444 29.3398 80.4108V6.71977C29.3437 5.28617 30.5078 4.12597 31.9414 4.12207H66.7504V17.2311C66.7621 20.7741 69.6371 23.6452 73.1801 23.6491H86.2891V80.4501C86.2618 81.8681 85.1055 83.0009 83.6914 83.0009V83.0006Z" fill="#0A7A6A"/>
<path d="M38.2299 40.441H76.7379C77.7184 40.441 78.5113 39.648 78.5113 38.6715C78.5113 37.691 77.7184 36.8981 76.7379 36.8981H38.2299C37.2534 36.8981 36.4604 37.691 36.4604 38.6715C36.4604 39.648 37.2534 40.441 38.2299 40.441Z" fill="#0A7A6A"/>
<path d="M66.5118 45.7695C66.5118 44.7929 65.7189 44 64.7384 44H38.2304C37.2539 44 36.4609 44.793 36.4609 45.7695C36.4609 46.746 37.2539 47.539 38.2304 47.539H64.7384C65.2111 47.539 65.6603 47.3515 65.9923 47.0195C66.3244 46.6874 66.5118 46.2383 66.5118 45.7695Z" fill="#0A7A6A"/>
<path d="M18.1089 15.781H22.8511C23.8276 15.781 24.6206 14.988 24.6206 14.0115C24.6206 13.031 23.8276 12.2381 22.8511 12.2381H18.1089C15.0659 12.2459 12.6011 14.7147 12.6011 17.7615V81.0625V81.0586C12.6011 84.1055 15.0659 86.5742 18.1089 86.5781H22.8511C23.8276 86.5781 24.6206 85.789 24.6206 84.8086C24.6206 83.832 23.8276 83.0391 22.8511 83.0391H18.1089C17.0034 83.0391 16.1089 82.1446 16.1089 81.0391V17.7621C16.1206 16.6644 17.0112 15.7816 18.1089 15.7816V15.781Z" fill="#A6DBD6"/>
<path d="M5.35154 31.09H9.07034C10.0469 31.09 10.8398 30.297 10.8398 29.3205C10.8398 28.3439 10.0469 27.551 9.07034 27.551H5.35154C2.75774 27.5549 0.656237 29.6565 0.648438 32.2502V81.8712C0.648438 84.4689 2.75394 86.5743 5.35154 86.5782H9.07034C10.0469 86.5782 10.8398 85.7891 10.8398 84.8087C10.8398 83.8321 10.0469 83.0392 9.07034 83.0392H5.35154C4.71092 83.0274 4.19534 82.5118 4.19134 81.8712V32.2502C4.19524 31.6134 4.71087 31.094 5.35154 31.09Z" fill="#A6DBD6"/>
<path d="M74.1091 65.27C71.2575 64.5903 71.1989 63.4302 71.1091 62.8794C71.1443 62.3403 71.3787 61.8325 71.7615 61.4497C72.117 61.0864 72.6287 60.9184 73.1287 61.0005C75.9373 61.2387 76.2185 62.7505 76.3201 63.2505C76.3787 63.6958 76.617 64.0981 76.9841 64.3638C77.3474 64.6255 77.8045 64.7309 78.2458 64.6489C78.6873 64.5669 79.0779 64.3052 79.3239 63.9263C79.5661 63.5513 79.6443 63.0864 79.5388 62.649C79.1364 60.4146 77.4568 58.6256 75.2497 58.0787V56.3092C75.2497 55.4029 74.5153 54.6725 73.6091 54.6725C72.7029 54.6725 71.9685 55.4029 71.9685 56.3092V57.8404C71.0427 58.0005 70.1912 58.4419 69.5193 59.1021C68.449 60.1529 67.8552 61.5982 67.8787 63.1021C67.9998 65.0005 68.9998 67.4418 73.3396 68.4692C76.5896 69.2505 76.5896 70.1099 76.5896 71.2974V71.3013C76.5857 71.688 76.4099 72.0552 76.1091 72.3013C75.5154 72.8364 74.7575 73.1489 73.9607 73.1919C73.1795 73.1919 70.6326 72.813 70.6326 70.1919H70.6287C70.6287 69.2856 69.8943 68.5513 68.9881 68.5513C68.0858 68.5513 67.3514 69.2857 67.3514 70.1919C67.2733 73.0317 69.203 75.5396 71.9686 76.1919V77.8716C71.9686 78.7778 72.703 79.5122 73.6092 79.5122C74.5154 79.5122 75.2498 78.7778 75.2498 77.8716V76.3013C76.4139 76.0396 77.492 75.4771 78.3709 74.6724C79.324 73.8091 79.8748 72.5865 79.8787 71.3013C79.8787 67.2193 77.1014 66.0005 74.1092 65.2701L74.1091 65.27Z" fill="#0A7A6A"/>
</svg>
