<svg width="16" height="16" viewBox="0 0 16 16" fill="none" xmlns="http://www.w3.org/2000/svg">
<path d="M6.50503 7.49497C6.77839 7.76834 7.22161 7.76834 7.49497 7.49497C7.76834 7.22161 7.76834 6.77839 7.49497 6.50503L6.50503 7.49497ZM2 1.3C1.6134 1.3 1.3 1.6134 1.3 2V8.3C1.3 8.6866 1.6134 9 2 9C2.3866 9 2.7 8.6866 2.7 8.3V2.7H8.3C8.6866 2.7 9 2.3866 9 2C9 1.6134 8.6866 1.3 8.3 1.3H2ZM7.49497 6.50503L2.49497 1.50503L1.50503 2.49497L6.50503 7.49497L7.49497 6.50503Z" fill="#0A7A6A"/>
<path d="M9.49498 8.50502C9.22161 8.23166 8.77839 8.23166 8.50503 8.50502C8.23166 8.77839 8.23166 9.22161 8.50503 9.49497L9.49498 8.50502ZM14 14.7C14.3866 14.7 14.7 14.3866 14.7 14L14.7 7.7C14.7 7.3134 14.3866 7 14 7C13.6134 7 13.3 7.3134 13.3 7.7L13.3 13.3L7.7 13.3C7.3134 13.3 7 13.6134 7 14C7 14.3866 7.3134 14.7 7.7 14.7L14 14.7ZM8.50503 9.49497L13.505 14.495L14.495 13.505L9.49498 8.50502L8.50503 9.49497Z" fill="#0A7A6A"/>
</svg>
