<svg width="40" height="41" viewBox="0 0 40 41" fill="none" xmlns="http://www.w3.org/2000/svg">
<path fill-rule="evenodd" clip-rule="evenodd" d="M20 0.864014C8.95431 0.864014 0 9.81832 0 20.864C0 31.9097 8.95431 40.864 20 40.864C31.0457 40.864 40 31.9097 40 20.864C40 9.81832 31.0457 0.864014 20 0.864014ZM18.6665 21.3346V28.864H21.6665V21.3346H24.2294L24.6406 18.5111H21.6665V17.3045C21.6665 16.2221 21.9718 15.6875 23.0055 15.6875H24.6665V12.9873L24.649 12.985C24.3501 12.9454 23.7349 12.864 22.5915 12.864C20.1562 12.864 18.6665 14.1242 18.6665 16.9948V18.5111H15.6665V21.3346H18.6665Z" fill="#A6DBD6"/>
</svg>
