<svg width="40" height="41" viewBox="0 0 40 41" fill="none" xmlns="http://www.w3.org/2000/svg">
<path fill-rule="evenodd" clip-rule="evenodd" d="M20 0.864014C8.95431 0.864014 0 9.81832 0 20.864C0 31.9097 8.95431 40.864 20 40.864C31.0457 40.864 40 31.9097 40 20.864C40 9.81832 31.0457 0.864014 20 0.864014ZM15.6029 10.262C16.7407 10.2102 17.1042 10.1975 20.0012 10.1975H19.9978C22.8956 10.1975 23.2579 10.2102 24.3957 10.262C25.5312 10.314 26.3068 10.4937 26.9868 10.7575C27.689 11.0297 28.2824 11.3942 28.8757 11.9875C29.469 12.5804 29.8335 13.1755 30.1068 13.8771C30.369 14.5553 30.5491 15.3305 30.6024 16.466C30.6535 17.6038 30.6668 17.9674 30.6668 20.8643C30.6668 23.7612 30.6535 24.1239 30.6024 25.2617C30.5491 26.3968 30.369 27.1721 30.1068 27.8506C29.8335 28.5519 29.469 29.147 28.8757 29.7399C28.283 30.3333 27.6888 30.6986 26.9875 30.9711C26.3088 31.2348 25.5328 31.4146 24.3972 31.4666C23.2594 31.5184 22.897 31.5311 19.9998 31.5311C17.1031 31.5311 16.7398 31.5184 15.602 31.4666C14.4667 31.4146 13.6913 31.2348 13.0126 30.9711C12.3115 30.6986 11.7164 30.3333 11.1237 29.7399C10.5306 29.147 10.1662 28.5519 9.8935 27.8504C9.62994 27.1721 9.45016 26.397 9.39794 25.2614C9.34639 24.1237 9.3335 23.7612 9.3335 20.8643C9.3335 17.9674 9.34683 17.6036 9.39772 16.4658C9.44883 15.3307 9.62883 14.5553 9.89328 13.8769C10.1666 13.1755 10.5311 12.5804 11.1244 11.9875C11.7173 11.3944 12.3124 11.03 13.014 10.7575C13.6922 10.4937 14.4673 10.314 15.6029 10.262Z" fill="#A6DBD6"/>
<path fill-rule="evenodd" clip-rule="evenodd" d="M19.044 12.1196C19.2298 12.1193 19.4297 12.1194 19.6454 12.1195L20.0009 12.1196C22.8489 12.1196 23.1865 12.1298 24.3112 12.1809C25.3512 12.2285 25.9156 12.4023 26.2916 12.5483C26.7894 12.7416 27.1443 12.9727 27.5174 13.3461C27.8907 13.7194 28.1219 14.075 28.3156 14.5727C28.4616 14.9483 28.6356 15.5128 28.683 16.5528C28.7341 17.6772 28.7452 18.015 28.7452 20.8617C28.7452 23.7084 28.7341 24.0462 28.683 25.1706C28.6354 26.2106 28.4616 26.7751 28.3156 27.1507C28.1223 27.6484 27.8907 28.0029 27.5174 28.376C27.1441 28.7493 26.7896 28.9805 26.2916 29.1738C25.9161 29.3205 25.3512 29.4938 24.3112 29.5413C23.1867 29.5925 22.8489 29.6036 20.0009 29.6036C17.1526 29.6036 16.8151 29.5925 15.6906 29.5413C14.6506 29.4933 14.0862 29.3196 13.7099 29.1736C13.2121 28.9802 12.8566 28.7491 12.4832 28.3758C12.1099 28.0024 11.8788 27.6478 11.685 27.1498C11.539 26.7742 11.365 26.2098 11.3177 25.1697C11.2666 24.0453 11.2563 23.7075 11.2563 20.859C11.2563 18.0106 11.2666 17.6746 11.3177 16.5501C11.3652 15.5101 11.539 14.9456 11.685 14.5696C11.8784 14.0719 12.1099 13.7163 12.4832 13.343C12.8566 12.9696 13.2121 12.7385 13.7099 12.5447C14.0859 12.3981 14.6506 12.2247 15.6906 12.1769C16.6746 12.1325 17.056 12.1192 19.044 12.1169V12.1196ZM25.6951 13.8903C24.9884 13.8903 24.415 14.463 24.415 15.1699C24.415 15.8766 24.9884 16.4499 25.6951 16.4499C26.4017 16.4499 26.9751 15.8766 26.9751 15.1699C26.9751 14.4632 26.4017 13.8899 25.6951 13.8899V13.8903ZM14.5234 20.8643C14.5234 17.8392 16.976 15.3866 20.0011 15.3865C23.0262 15.3865 25.4782 17.8392 25.4782 20.8643C25.4782 23.8895 23.0264 26.341 20.0013 26.341C16.9761 26.341 14.5234 23.8895 14.5234 20.8643Z" fill="#A6DBD6"/>
<path fill-rule="evenodd" clip-rule="evenodd" d="M20.0009 17.3083C21.9645 17.3083 23.5565 18.9001 23.5565 20.8639C23.5565 22.8275 21.9645 24.4195 20.0009 24.4195C18.0371 24.4195 16.4453 22.8275 16.4453 20.8639C16.4453 18.9001 18.0371 17.3083 20.0009 17.3083V17.3083Z" fill="#A6DBD6"/>
</svg>
