<svg width="60" height="60" viewBox="0 0 60 60" fill="none" xmlns="http://www.w3.org/2000/svg">
<rect width="60" height="60" rx="30" fill="white"/>
<rect x="2" y="2" width="56" height="56" rx="28" stroke="#A6DBD6" stroke-opacity="0.2" stroke-width="4"/>
<path fill-rule="evenodd" clip-rule="evenodd" d="M26 27.8183H34V24.5455C34 22.1359 32.2088 20.1818 30 20.1818C27.7913 20.1818 26 22.1359 26 24.5455V27.8183ZM36 27.8183H37C38.6563 27.8183 40 29.2842 40 31.091V38.7274C40 40.5342 38.6563 42.0001 37 42.0001H23C21.3437 42.0001 20 40.5342 20 38.7274V31.091C20 29.2842 21.3437 27.8183 23 27.8183H24V24.5455C24 20.9306 26.6863 18 30 18C33.3138 18 36 20.9304 36 24.5455V27.8183ZM23 30.0001C22.4475 30.0001 22 30.4882 22 31.091V38.7274C22 39.3301 22.4475 39.8183 23 39.8183H37C37.5525 39.8183 38 39.3301 38 38.7274V31.091C38 30.4882 37.5525 30.0001 37 30.0001H23ZM26.0001 35.4545C25.4476 35.4545 25.0001 34.9664 25.0001 34.3636C25.0001 33.7609 25.4476 33.2727 26.0001 33.2727C26.5526 33.2727 27.0001 33.7609 27.0001 34.3636C27.0001 34.9664 26.5526 35.4545 26.0001 35.4545ZM29.0001 34.3636C29.0001 34.9664 29.4475 35.4545 30.0001 35.4545C30.5526 35.4545 31.0001 34.9664 31.0001 34.3636C31.0001 33.7609 30.5526 33.2727 30.0001 33.2727C29.4475 33.2727 29.0001 33.7609 29.0001 34.3636ZM34 35.4545C33.4475 35.4545 33 34.9664 33 34.3636C33 33.7609 33.4475 33.2727 34 33.2727C34.5525 33.2727 35 33.7609 35 34.3636C35 34.9664 34.5525 35.4545 34 35.4545Z" fill="#0A7A6A"/>
<path d="M34 27.8183V28.0683H34.25V27.8183H34ZM26 27.8183H25.75V28.0683H26V27.8183ZM36 27.8183H35.75V28.0683H36V27.8183ZM24 27.8183V28.0683H24.25V27.8183H24ZM34 27.5683H26V28.0683H34V27.5683ZM34.25 27.8183V24.5455H33.75V27.8183H34.25ZM34.25 24.5455C34.25 22.0188 32.3669 19.9318 30 19.9318V20.4318C32.0507 20.4318 33.75 22.2531 33.75 24.5455H34.25ZM30 19.9318C27.6332 19.9318 25.75 22.0188 25.75 24.5455H26.25C26.25 22.2531 27.9494 20.4318 30 20.4318V19.9318ZM25.75 24.5455V27.8183H26.25V24.5455H25.75ZM37 27.5683H36V28.0683H37V27.5683ZM40.25 31.091C40.25 29.167 38.8144 27.5683 37 27.5683V28.0683C38.4982 28.0683 39.75 29.4013 39.75 31.091H40.25ZM40.25 38.7274V31.091H39.75V38.7274H40.25ZM37 42.2501C38.8144 42.2501 40.25 40.6513 40.25 38.7274H39.75C39.75 40.417 38.4982 41.7501 37 41.7501V42.2501ZM23 42.2501H37V41.7501H23V42.2501ZM19.75 38.7274C19.75 40.6513 21.1856 42.2501 23 42.2501V41.7501C21.5018 41.7501 20.25 40.417 20.25 38.7274H19.75ZM19.75 31.091V38.7274H20.25V31.091H19.75ZM23 27.5683C21.1856 27.5683 19.75 29.167 19.75 31.091H20.25C20.25 29.4013 21.5018 28.0683 23 28.0683V27.5683ZM24 27.5683H23V28.0683H24V27.5683ZM24.25 27.8183V24.5455H23.75V27.8183H24.25ZM24.25 24.5455C24.25 21.0478 26.8444 18.25 30 18.25V17.75C26.5282 17.75 23.75 20.8135 23.75 24.5455H24.25ZM30 18.25C33.1557 18.25 35.75 21.0476 35.75 24.5455H36.25C36.25 20.8133 33.4719 17.75 30 17.75V18.25ZM35.75 24.5455V27.8183H36.25V24.5455H35.75ZM22.25 31.091C22.25 30.6054 22.6056 30.2501 23 30.2501V29.7501C22.2894 29.7501 21.75 30.3711 21.75 31.091H22.25ZM22.25 38.7274V31.091H21.75V38.7274H22.25ZM23 39.5683C22.6056 39.5683 22.25 39.2129 22.25 38.7274H21.75C21.75 39.4472 22.2894 40.0683 23 40.0683V39.5683ZM37 39.5683H23V40.0683H37V39.5683ZM37.75 38.7274C37.75 39.2129 37.3944 39.5683 37 39.5683V40.0683C37.7106 40.0683 38.25 39.4472 38.25 38.7274H37.75ZM37.75 31.091V38.7274H38.25V31.091H37.75ZM37 30.2501C37.3944 30.2501 37.75 30.6054 37.75 31.091H38.25C38.25 30.3711 37.7106 29.7501 37 29.7501V30.2501ZM23 30.2501H37V29.7501H23V30.2501ZM24.7501 34.3636C24.7501 35.0835 25.2895 35.7045 26.0001 35.7045V35.2045C25.6057 35.2045 25.2501 34.8492 25.2501 34.3636H24.7501ZM26.0001 33.0227C25.2895 33.0227 24.7501 33.6437 24.7501 34.3636H25.2501C25.2501 33.878 25.6057 33.5227 26.0001 33.5227V33.0227ZM27.2501 34.3636C27.2501 33.6437 26.7107 33.0227 26.0001 33.0227V33.5227C26.3945 33.5227 26.7501 33.878 26.7501 34.3636H27.2501ZM26.0001 35.7045C26.7107 35.7045 27.2501 35.0835 27.2501 34.3636H26.7501C26.7501 34.8492 26.3945 35.2045 26.0001 35.2045V35.7045ZM30.0001 35.2045C29.6056 35.2045 29.2501 34.8492 29.2501 34.3636H28.7501C28.7501 35.0835 29.2894 35.7045 30.0001 35.7045V35.2045ZM30.7501 34.3636C30.7501 34.8492 30.3945 35.2045 30.0001 35.2045V35.7045C30.7107 35.7045 31.2501 35.0835 31.2501 34.3636H30.7501ZM30.0001 33.5227C30.3945 33.5227 30.7501 33.878 30.7501 34.3636H31.2501C31.2501 33.6437 30.7107 33.0227 30.0001 33.0227V33.5227ZM29.2501 34.3636C29.2501 33.878 29.6056 33.5227 30.0001 33.5227V33.0227C29.2894 33.0227 28.7501 33.6437 28.7501 34.3636H29.2501ZM32.75 34.3636C32.75 35.0835 33.2894 35.7045 34 35.7045V35.2045C33.6056 35.2045 33.25 34.8492 33.25 34.3636H32.75ZM34 33.0227C33.2894 33.0227 32.75 33.6437 32.75 34.3636H33.25C33.25 33.878 33.6056 33.5227 34 33.5227V33.0227ZM35.25 34.3636C35.25 33.6437 34.7106 33.0227 34 33.0227V33.5227C34.3944 33.5227 34.75 33.878 34.75 34.3636H35.25ZM34 35.7045C34.7106 35.7045 35.25 35.0835 35.25 34.3636H34.75C34.75 34.8492 34.3944 35.2045 34 35.2045V35.7045Z" fill="#0A7A6A"/>
</svg>
