<svg width="100" height="100" viewBox="0 0 100 100" fill="none" xmlns="http://www.w3.org/2000/svg">
<path d="M70.312 7.03119C70.312 10.1562 65.6245 10.1562 65.6245 7.03119C65.6245 3.90619 70.312 3.90619 70.312 7.03119Z" fill="#0A7A6A"/>
<path d="M78.9058 7.03119C78.9058 10.1562 74.2183 10.1562 74.2183 7.03119C74.2183 3.90619 78.9058 3.90619 78.9058 7.03119Z" fill="#0A7A6A"/>
<path d="M14.8438 48H32.0318C35.4693 48 38.2818 45.1875 38.2818 41.75V29.25C38.2818 25.8125 35.4693 23 32.0318 23H14.8438C11.4062 23 8.59375 25.8125 8.59375 29.25V41.75C8.59375 45.1875 11.4062 48 14.8438 48ZM11.7188 29.25C11.7188 27.5312 13.1249 26.125 14.8438 26.125H32.0318C33.7506 26.125 35.1568 27.5312 35.1568 29.25V41.75C35.1568 43.4688 33.7506 44.875 32.0318 44.875H14.8438C13.1249 44.875 11.7188 43.4688 11.7188 41.75V29.25Z" fill="#0A7A6A"/>
<path d="M77.3442 27H44.5322C43.6728 27 42.9697 27.7031 42.9697 28.5625C42.9697 29.4219 43.6728 30.125 44.5322 30.125H77.3442C78.2036 30.125 78.9067 29.4219 78.9067 28.5625C78.9067 27.7031 78.2036 27 77.3442 27Z" fill="#0A7A6A"/>
<path d="M78.9057 35.5625C78.9057 34.7031 78.2026 34 77.3432 34H44.5312C43.6719 34 42.9688 34.7031 42.9688 35.5625C42.9688 36.4219 43.6719 37.125 44.5312 37.125H77.3432C78.2026 37.125 78.9057 36.4219 78.9057 35.5625Z" fill="#0A7A6A"/>
<path d="M59.4533 44.125C60.3126 44.125 61.0158 43.4219 61.0158 42.5625C61.0158 41.7031 60.3126 41 59.4533 41H44.5312C43.6719 41 42.9688 41.7031 42.9688 42.5625C42.9688 43.4219 43.6719 44.125 44.5312 44.125H59.4533Z" fill="#0A7A6A"/>
<path d="M42.188 54.688H9.37598C8.5166 54.688 7.81348 55.3911 7.81348 56.2505C7.81348 57.1099 8.5166 57.813 9.37598 57.813H42.188C43.0474 57.813 43.7505 57.1099 43.7505 56.2505C43.7505 55.3911 43.0474 54.688 42.188 54.688Z" fill="#0A7A6A"/>
<path d="M42.188 62H9.37598C8.5166 62 7.81348 62.7031 7.81348 63.5625C7.81348 64.4219 8.5166 65.125 9.37598 65.125H42.188C43.0474 65.125 43.7505 64.4219 43.7505 63.5625C43.7505 62.7031 43.0474 62 42.188 62Z" fill="#0A7A6A"/>
<path d="M26.188 69H9.37598C8.5166 69 7.81348 69.7031 7.81348 70.5625C7.81348 71.4219 8.5166 72.125 9.37598 72.125H26.188C27.0474 72.125 27.7505 71.4219 27.7505 70.5625C27.7505 69.7031 27.0474 69 26.188 69Z" fill="#0A7A6A"/>
<path d="M6.25 81.25C4.5312 81.25 3.125 79.8438 3.125 78.125V14.063H84.375V58.813L87.5 59.9849V6.25092C87.5 2.81342 84.6875 0.000915527 81.25 0.000915527H6.25C2.8125 0.000915527 0 2.81342 0 6.25092V78.1259C0 81.5634 2.8125 84.3759 6.25 84.3759H61L59.9062 81.2509L6.25 81.25ZM6.25 3.12502H81.25C82.9688 3.12502 84.375 4.53122 84.375 6.25002V10.9375H3.125V6.25002C3.125 4.53122 4.5312 3.12502 6.25 3.12502Z" fill="#0A7A6A"/>
<path d="M97.8122 89.531L86.5622 77.422L90.781 75.547C94.7654 73.3595 94.6872 70.2345 90.4685 68.4376L66.3275 59.2188C65.39 58.8282 64.5306 58.5938 63.7494 58.5938C61.2494 58.5938 60.2338 60.7813 61.3275 64.2969L69.9213 89.3749C70.7026 91.7968 71.8744 93.0468 73.1244 93.0468C74.2963 93.0468 75.4682 92.0312 76.4838 90.078L78.4369 85.6249L89.5309 97.4999C91.0153 99.1405 93.0465 99.9999 94.8434 99.9999C96.1715 99.9999 97.4215 99.5312 98.359 98.5937C100.703 96.4062 100.468 92.3437 97.8121 89.5312L97.8122 89.531ZM96.3278 96.406C96.0153 96.7185 95.5466 96.8748 94.9997 96.8748C93.9841 96.8748 92.8122 96.3279 91.9528 95.3904L80.8588 83.5154L77.6557 80.0779L75.7026 84.3748L73.8276 88.6717C73.6714 88.9842 73.5151 89.2185 73.3589 89.3748C73.2807 89.1404 73.1245 88.8279 72.9683 88.4373L64.3744 63.2813C64.1401 62.5 64.0619 62.0313 64.0619 61.7188C64.2963 61.7188 64.687 61.875 65.1558 62.0313H65.2339L89.2959 71.3282C89.8428 71.5626 90.2334 71.7969 90.3897 71.9532C90.2334 72.1094 89.9209 72.4219 89.3741 72.6563L85.3116 74.4532L81.3272 76.2501L84.296 79.4532L95.546 91.5622C97.1085 93.3591 97.1866 95.5466 96.3272 96.406L96.3278 96.406Z" fill="#A6DBD6"/>
</svg>
