<svg width="37" height="50" viewBox="0 0 37 50" fill="none" xmlns="http://www.w3.org/2000/svg">
<path d="M20.8257 33.1806V29.2944C23.2858 29.0309 25.5711 27.8882 27.255 26.0755C31.711 21.0896 30.0185 12.5213 29.947 12.1459C29.904 11.9368 29.7723 11.7593 29.5861 11.6533C29.4 11.5502 29.1795 11.5302 28.979 11.6018C28.3089 11.8452 27.6502 12.1258 27.0144 12.4466C26.6392 6.15764 24.8665 4.16139 24.6546 3.94072H24.6517C24.4341 3.72307 24.1047 3.66579 23.8241 3.79466C23.0537 4.19273 22.3464 4.70536 21.7278 5.31247C20.356 2.18807 19.0443 1.24298 18.8525 1.11982C18.5919 0.947985 18.2511 0.96231 18.0019 1.15418C16.6702 2.32551 15.5963 3.76598 14.8574 5.37829C14.213 4.73966 13.4713 4.2041 12.658 3.79457C12.3802 3.6657 12.048 3.72298 11.8304 3.94063C11.6184 4.16114 9.8429 6.14003 9.47054 12.4465C8.84337 12.1314 8.19899 11.8508 7.54034 11.6102C7.33988 11.5387 7.11936 11.5558 6.93322 11.6618C6.74707 11.7649 6.61534 11.9453 6.57238 12.1515C6.49792 12.5181 4.80537 21.0892 9.26438 26.0811C10.9483 27.8968 13.2336 29.0394 15.6936 29.3V33.1632C11.9534 28.7272 2.28529 27.3411 1.83002 27.2982C1.58946 27.2667 1.3489 27.3526 1.18566 27.533C1.02528 27.7163 0.962279 27.9654 1.02242 28.2003C1.14843 28.6843 4.08098 39.9964 9.8633 42.0639H9.86616C10.4647 42.2844 11.0976 42.3989 11.7362 42.4018C13.1767 42.3416 14.56 41.829 15.694 40.9355V48.2669C15.694 48.4616 15.7713 48.6478 15.9088 48.7852C16.0463 48.9227 16.2324 49 16.4271 49H20.0928C20.2876 49 20.4737 48.9227 20.6112 48.7852C20.7486 48.6478 20.826 48.4616 20.826 48.2669V40.9355C21.96 41.8291 23.349 42.3417 24.7924 42.4018C25.431 42.4018 26.0611 42.2901 26.6624 42.0724C32.4473 40.0048 35.3802 28.6927 35.5033 28.2089C35.5635 27.974 35.5033 27.722 35.3429 27.5416C35.1797 27.3612 34.9392 27.2724 34.6986 27.3068C34.2432 27.344 24.5579 28.7358 20.8262 33.1804L20.8257 33.1806ZM14.8661 39.7788C13.2738 40.9157 11.8019 41.2451 10.3642 40.6952C6.27474 39.2289 3.63428 31.7942 2.7609 28.965C5.69344 29.5149 13.3686 31.3048 15.2755 35.2053C15.9514 36.5369 15.8196 38.0462 14.866 39.7473L14.8661 39.7788ZM23.9189 5.44459C24.4315 6.33814 25.3852 8.61768 25.5827 13.2371C22.4154 15.2074 19.8723 18.0397 18.26 21.405C17.9593 20.8036 17.6299 20.1965 17.249 19.5807C18.26 10.1012 22.4468 6.47883 23.9189 5.44511V5.44459ZM18.4576 2.7383C19.4027 3.8523 20.1473 5.11813 20.657 6.48704C19.7177 7.6039 18.9215 8.83535 18.2886 10.1527C17.6729 8.85543 16.8997 7.64114 15.9862 6.53572C16.5961 5.14393 17.4295 3.86095 18.4576 2.7383ZM12.5925 5.44459C13.5834 6.12046 15.7971 8.00199 17.4524 12.0428C16.7651 13.8957 16.2754 15.8144 15.9862 17.7676C14.5944 15.9605 12.8789 14.4226 10.9287 13.237C11.1206 8.61196 12.0856 6.33235 12.6011 5.44452L12.5925 5.44459ZM16.1179 27.88C13.9213 27.6967 11.868 26.7058 10.3559 25.0992C7.15128 21.5223 7.57797 15.5685 7.8644 13.3119C12.2461 15.202 15.6972 18.7503 17.4699 23.1806C16.86 24.6956 16.4103 26.2706 16.1268 27.8802L16.1179 27.88ZM19.3597 47.5346H17.1603V29.4269H17.9593H18.5607H19.3597L19.3597 47.5346ZM17.5927 27.9665C18.0538 25.3862 20.2103 16.8375 28.647 13.3038C28.9391 15.5032 29.3801 21.5083 26.1612 25.0853C24.2797 27.1988 21.3901 28.1639 17.5923 27.9663L17.5927 27.9665ZM33.765 28.9259C32.8915 31.7639 30.2539 39.1898 26.1616 40.6561C24.6954 41.1773 23.2291 40.8766 21.6597 39.7396C20.7061 38.0386 20.5743 36.535 21.2502 35.1575C23.1575 31.2656 30.8499 29.4786 33.7648 28.9288L33.765 28.9259Z" fill="#0A7A6A" stroke="#0A7A6A" stroke-width="1.2"/>
</svg>
