<svg width="40" height="44" viewBox="0 0 40 44" fill="none" xmlns="http://www.w3.org/2000/svg">
<path d="M7.80127 15.0776L19.8013 8.15449L31.8013 15.0776V28.9224L19.8013 35.8455L7.80127 28.9224V15.0776Z" fill="white" stroke="#0A7A6A" stroke-width="2"/>
<path d="M38.3713 28.422L38.2697 25.422L29.2697 25.7384L22.8009 22.0001L29.2697 18.2618L38.2697 18.5782L38.3713 15.5782L34.1721 15.4298L39.6018 12.3009L38.1018 9.6993L32.6721 12.8399L34.6526 9.1211L32.0003 7.7188L27.7698 15.6719L21.301 19.3985V11.9297L26.0705 4.3008L23.5314 2.6992L21.3009 6.2695V0H18.3009V6.2695L16.0704 2.6992L13.5313 4.3008L18.3008 11.9297V19.3985L11.832 15.6719L7.6015 7.7188L4.9492 9.1211L6.9297 12.8399L1.5 9.6993L0 12.3009L5.4297 15.4298L1.2305 15.5782L1.33206 18.5782L10.3321 18.2618L16.8009 22.0001L10.3321 25.7384L1.33206 25.422L1.2305 28.422L5.4297 28.5705L0 31.6994L1.5 34.301L6.9297 31.1604L4.9492 34.8792L7.6015 36.2815L11.832 28.3284L18.3008 24.6018V32.0706L13.5313 39.6995L16.0704 41.3011L18.3009 37.7308V44.0003H21.3009V37.7308L23.5314 41.3011L26.0705 39.6995L21.301 32.0706V24.6018L27.7698 28.3284L32.0003 36.2815L34.6526 34.8792L32.6721 31.1604L38.1018 34.301L39.6018 31.6994L34.1721 28.5705L38.3713 28.422Z" fill="#0A7A6A"/>
</svg>
