<svg width="46" height="46" viewBox="0 0 46 46" fill="none" xmlns="http://www.w3.org/2000/svg">
<path d="M32.767 22.9998C32.767 20.4103 31.7382 17.9248 29.9058 16.0943C28.0754 14.262 25.5898 13.233 23.0002 13.233C20.4106 13.233 17.9251 14.2619 16.0947 16.0943C14.2623 17.9247 13.2334 20.4103 13.2334 22.9998C13.2334 25.5894 14.2623 28.0749 16.0947 29.9054C17.9251 31.7377 20.4106 32.7667 23.0002 32.7667C25.5898 32.7667 28.0753 31.7378 29.9058 29.9054C31.7381 28.075 32.767 25.5894 32.767 22.9998ZM23.0001 30.7938C20.9327 30.7938 18.9501 29.9729 17.4895 28.5105C16.0271 27.0501 15.2063 25.0674 15.2063 22.9999C15.2063 20.9324 16.0271 18.9498 17.4895 17.4893C18.95 16.0269 20.9326 15.206 23.0001 15.206C25.0676 15.206 27.0502 16.0269 28.5107 17.4893C29.9731 18.9497 30.794 20.9324 30.794 22.9999C30.794 25.0674 29.9731 27.05 28.5107 28.5105C27.0503 29.9729 25.0676 30.7938 23.0001 30.7938Z" fill="white"/>
<path d="M23.0001 30.7938C20.9327 30.7938 18.9501 29.9729 17.4895 28.5105C16.0271 27.0501 15.2063 25.0674 15.2063 22.9999C15.2063 20.9324 16.0271 18.9498 17.4895 17.4893C18.95 16.0269 20.9326 15.206 23.0001 15.206C25.0676 15.206 27.0502 16.0269 28.5107 17.4893C29.9731 18.9497 30.794 20.9324 30.794 22.9999C30.794 25.0674 29.9731 27.05 28.5107 28.5105C27.0503 29.9729 25.0676 30.7938 23.0001 30.7938Z" fill="white"/>
<path d="M32.767 22.9998C32.767 20.4103 31.7382 17.9248 29.9058 16.0943C28.0754 14.262 25.5898 13.233 23.0002 13.233C20.4106 13.233 17.9251 14.2619 16.0947 16.0943C14.2623 17.9247 13.2334 20.4103 13.2334 22.9998C13.2334 25.5894 14.2623 28.0749 16.0947 29.9054C17.9251 31.7377 20.4106 32.7667 23.0002 32.7667C25.5898 32.7667 28.0753 31.7378 29.9058 29.9054C31.7381 28.075 32.767 25.5894 32.767 22.9998ZM23.0001 30.7938C20.9327 30.7938 18.9501 29.9729 17.4895 28.5105C16.0271 27.0501 15.2063 25.0674 15.2063 22.9999C15.2063 20.9324 16.0271 18.9498 17.4895 17.4893C18.95 16.0269 20.9326 15.206 23.0001 15.206C25.0676 15.206 27.0502 16.0269 28.5107 17.4893C29.9731 18.9497 30.794 20.9324 30.794 22.9999C30.794 25.0674 29.9731 27.05 28.5107 28.5105C27.0503 29.9729 25.0676 30.7938 23.0001 30.7938Z" stroke="#0A7A6A" stroke-width="1.5"/>
<path d="M23.0001 30.7938C20.9327 30.7938 18.9501 29.9729 17.4895 28.5105C16.0271 27.0501 15.2063 25.0674 15.2063 22.9999C15.2063 20.9324 16.0271 18.9498 17.4895 17.4893C18.95 16.0269 20.9326 15.206 23.0001 15.206C25.0676 15.206 27.0502 16.0269 28.5107 17.4893C29.9731 18.9497 30.794 20.9324 30.794 22.9999C30.794 25.0674 29.9731 27.05 28.5107 28.5105C27.0503 29.9729 25.0676 30.7938 23.0001 30.7938Z" stroke="#0A7A6A" stroke-width="1.5"/>
<path d="M32.767 22.9998C32.767 20.4103 31.7382 17.9248 29.9058 16.0943C28.0753 14.262 25.5898 13.233 23.0002 13.233C20.4106 13.233 17.9251 14.2619 16.0947 16.0943C14.2623 17.9247 13.2334 20.4103 13.2334 22.9998C13.2334 25.5894 14.2623 28.0749 16.0947 29.9054C17.9251 31.7377 20.4106 32.7667 23.0002 32.7667C25.5898 32.7667 28.0753 31.7378 29.9058 29.9054C31.7381 28.075 32.767 25.5894 32.767 22.9998ZM23.0001 30.7938C20.9327 30.7938 18.9501 29.9729 17.4895 28.5105C16.0271 27.0501 15.2063 25.0674 15.2063 22.9999C15.2063 20.9324 16.0271 18.9498 17.4895 17.4893C18.95 16.0269 20.9326 15.206 23.0001 15.206C25.0676 15.206 27.0502 16.0269 28.5107 17.4893C29.9731 18.9497 30.794 20.9324 30.794 22.9999C30.794 25.0674 29.9731 27.05 28.5107 28.5105C27.0503 29.9729 25.0676 30.7938 23.0001 30.7938Z" fill="#0A7A6A" stroke="#0A7A6A" stroke-width="1.5"/>
<path d="M23.9862 44.0134V37.0576C23.9862 36.5123 23.545 36.071 22.9997 36.071C22.4544 36.071 22.0132 36.5123 22.0132 37.0576V44.0134C22.0132 44.5568 22.4544 44.9999 22.9997 44.9999C23.545 44.9999 23.9862 44.5568 23.9862 44.0134Z" fill="#0A7A6A" stroke="#0A7A6A" stroke-width="1.5"/>
<path d="M22.0132 1.98651V8.94237C22.0132 9.48766 22.4544 9.92888 22.9997 9.92888C23.545 9.92888 23.9862 9.48765 23.9862 8.94237V1.98651C23.9862 1.44314 23.545 1 22.9997 1C22.4544 1 22.0132 1.44316 22.0132 1.98651Z" fill="#0A7A6A" stroke="#0A7A6A" stroke-width="1.5"/>
<path d="M1.98651 23.9864H8.94237C9.48766 23.9864 9.92888 23.5452 9.92888 22.9999C9.92888 22.4547 9.48765 22.0134 8.94237 22.0134H1.98651C1.44314 22.0134 1 22.4547 1 22.9999C1 23.5452 1.44316 23.9864 1.98651 23.9864Z" fill="#0A7A6A" stroke="#0A7A6A" stroke-width="1.5"/>
<path d="M45.0002 23C45.0002 22.7379 44.8961 22.4874 44.7112 22.3024C44.5262 22.1175 44.2738 22.0134 44.0137 22.0134H37.0578C36.5125 22.0134 36.0713 22.4547 36.0713 22.9999C36.0713 23.5452 36.5125 23.9864 37.0578 23.9864H44.0137C44.2738 23.9864 44.5262 23.8824 44.7112 23.6974C44.8961 23.5125 45.0002 23.262 45.0002 22.9999V23Z" fill="#0A7A6A" stroke="#0A7A6A" stroke-width="1.5"/>
<path d="M13.7768 32.2232C13.3933 31.8475 12.7787 31.8475 12.3953 32.2232L7.46272 37.1557C7.23343 37.3272 7.09085 37.5893 7.06965 37.8763C7.05038 38.1615 7.15443 38.4409 7.35674 38.6432C7.55905 38.8455 7.83843 38.9495 8.1236 38.9303C8.41069 38.9091 8.67274 38.7665 8.8442 38.5372L13.7767 33.6047C14.1525 33.2213 14.1525 32.6066 13.7767 32.2232L13.7768 32.2232Z" fill="#0A7A6A" stroke="#0A7A6A" stroke-width="1.5"/>
<path d="M33.6049 13.7765L38.5375 8.84398C38.8323 8.45092 38.7937 7.90177 38.445 7.55496C38.0982 7.20622 37.549 7.16768 37.156 7.46248L32.2234 12.395C31.9942 12.5665 31.8516 12.8285 31.8323 13.1137C31.8111 13.3988 31.9152 13.6801 32.1175 13.8825C32.3198 14.0848 32.6011 14.1888 32.8862 14.1676C33.1714 14.1484 33.4335 14.0058 33.6049 13.7765L33.6049 13.7765Z" fill="#0A7A6A" stroke="#0A7A6A" stroke-width="1.5"/>
<path d="M12.3948 13.7765C12.7878 14.0713 13.337 14.0308 13.6838 13.684C14.0306 13.3372 14.0711 12.7881 13.7763 12.395L8.84374 7.46248C8.45067 7.16768 7.90152 7.20622 7.55472 7.55496C7.20597 7.90178 7.16743 8.45091 7.46223 8.84398L12.3948 13.7765Z" fill="#0A7A6A" stroke="#0A7A6A" stroke-width="1.5"/>
<path d="M37.8481 38.8343C38.2411 38.8286 38.5956 38.5877 38.7459 38.2235C38.8962 37.8575 38.8134 37.4374 38.5378 37.1561L33.6053 32.2236C33.2122 31.9288 32.6631 31.9692 32.3163 32.316C31.9695 32.6629 31.929 33.212 32.2238 33.6051L37.1563 38.5376C37.3394 38.7226 37.5879 38.8305 37.848 38.8343L37.8481 38.8343Z" fill="#0A7A6A" stroke="#0A7A6A" stroke-width="1.5"/>
</svg>
