<svg width="100" height="100" viewBox="0 0 100 100" fill="none" xmlns="http://www.w3.org/2000/svg">
<path d="M7.81251 17C6.82813 17.0938 5.99611 18.0117 6.00001 19V71C6.00001 72.0469 6.95313 73 8.00001 73H14.1875C15.1367 78.668 20.0703 83 25.9995 83C31.9287 83 36.8625 78.668 37.8115 73H62.1865C63.1357 78.668 68.0693 83 73.9985 83C79.9277 83 84.8615 78.668 85.8105 73H91.998C93.0449 73 93.998 72.0469 93.998 71V49C94.0019 48.7227 93.9511 48.4453 93.8418 48.1875L86.8418 32.1875C86.5293 31.4805 85.7715 30.9922 84.998 31H67.998V19C67.998 17.9531 67.0448 17 65.998 17H7.80996H7.81251ZM10 21H64V64.406C63.0938 65.7693 62.4727 67.324 62.1875 68.9998H37.8125C36.8516 63.3436 31.918 58.9998 26.0005 58.9998C20.083 58.9998 15.1485 63.3436 14.1885 68.9998H10.001V41.9998H31.001C32.0557 42.0154 33.0283 41.0584 33.0283 39.9998C33.0283 38.9412 32.0557 37.9842 31.001 37.9998H10.001L10 21ZM68.0005 35H83.6885L88.9385 47H68.0005V35ZM68.0005 51H90.0005V69H85.813C84.8521 63.3438 79.9185 59 74.001 59C71.8135 59 69.7705 59.625 68.001 60.6562L68.0005 51ZM26.0005 63C30.4419 63 34.0005 66.5586 34.0005 71C34.0005 75.4414 30.4419 79 26.0005 79C21.5591 79 18.0005 75.4414 18.0005 71C18.0005 66.5586 21.5591 63 26.0005 63ZM74.0005 63C78.4419 63 82.0005 66.5586 82.0005 71C82.0005 75.4414 78.4419 79 74.0005 79C69.5591 79 66.0005 75.4414 66.0005 71C66.0005 66.5586 69.5591 63 74.0005 63Z" fill="#0A7A6A"/>
<path d="M20.002 31.094C19.9512 30.0471 20.8613 29.051 21.9082 29.0002H24.0958C25.1505 28.9846 26.1231 29.9416 26.1231 31.0002C26.1231 32.0588 25.1505 33.0158 24.0958 33.0002H22.0958C21.0489 33.051 20.0489 32.1409 20.002 31.094Z" fill="#A6DBD6"/>
<path d="M30.002 31.094C29.9512 30.0471 30.8613 29.051 31.9082 29.0002H41.0958C42.1505 28.9846 43.1231 29.9416 43.1231 31.0002C43.1231 32.0588 42.1505 33.0158 41.0958 33.0002H32.0958C31.0489 33.051 30.0489 32.1409 30.002 31.094Z" fill="#A6DBD6"/>
<path d="M20.002 49.094C19.9512 48.0471 20.8613 47.051 21.9082 47.0002H46.0958C47.1505 46.9846 48.1231 47.9416 48.1231 49.0002C48.1231 50.0588 47.1505 51.0158 46.0958 51.0002H22.0958C21.0489 51.051 20.0489 50.1409 20.002 49.094Z" fill="#A6DBD6"/>
</svg>
